<svg width="36" height="36" viewBox="0 0 36 36" fill="none" xmlns="http://www.w3.org/2000/svg">
<path d="M31.1739 4.82623C31.022 4.67512 30.8302 4.57049 30.621 4.52465C30.4117 4.47882 30.1937 4.49368 29.9926 4.56748L5.24262 13.5675C5.02917 13.6484 4.84541 13.7924 4.71573 13.9803C4.58605 14.1682 4.5166 14.3911 4.5166 14.6194C4.5166 14.8476 4.58605 15.0705 4.71573 15.2584C4.84541 15.4463 5.02917 15.5903 5.24262 15.6712L16.0426 19.9912L20.3626 30.7912C20.4438 30.9953 20.5829 31.1712 20.7628 31.2971C20.9427 31.423 21.1556 31.4936 21.3751 31.5C21.6025 31.4953 21.8231 31.4219 22.0078 31.2893C22.1926 31.1568 22.3329 30.9713 22.4101 30.7575L31.4101 6.00749C31.4868 5.80845 31.5053 5.59172 31.4634 5.38257C31.4216 5.17343 31.3212 4.98048 31.1739 4.82623ZM21.3751 27.225L18.2364 19.35L23.6251 13.9612L22.0389 12.375L16.6051 17.8087L8.77512 14.625L28.4964 7.50374L21.3751 27.225Z" fill="#06306C"/>
</svg>
