<svg width="24" height="25" viewBox="0 0 24 25" fill="none" xmlns="http://www.w3.org/2000/svg">
<g clip-path="url(#clip0_183_398)">
<path d="M17.7013 16.3207C20.7444 14.6945 23.0513 13.4554 23.2502 13.359C23.8863 13.0298 24.5432 12.1585 23.2502 11.4816C22.8327 11.2688 20.5851 10.0682 17.7013 8.51996L13.7036 12.4492L17.7013 16.3206V16.3207Z" fill="#FFD900"/>
<path d="M13.7035 12.4493L0.974365 24.935C1.27315 24.9735 1.61046 24.8964 2.00815 24.6836C2.84308 24.2388 11.6942 19.5345 17.7011 16.3216L13.7035 12.4493Z" fill="#F43249"/>
<path d="M13.7035 12.4493L17.7012 8.53931C17.7012 8.53931 2.90346 0.679733 2.00815 0.215773C1.67084 0.0213384 1.29284 -0.036417 0.95459 0.0213384L13.7035 12.4493Z" fill="#00EE76"/>
<path d="M13.7035 12.4279L0.954656 0C0.43725 0.116423 0 0.561314 0 1.47117V23.4424C0 24.2752 0.338344 24.875 0.974437 24.9328L13.7035 12.4279Z" fill="#00D3FF"/>
</g>
<defs>
<clipPath id="clip0_183_398">
<rect width="24" height="25" fill="white"/>
</clipPath>
</defs>
</svg>
